<svg xmlns="http://www.w3.org/2000/svg" width="110" height="14.385" viewBox="0 0 110 14.385"><g transform="translate(4277.34 -1675.433)"><path d="M-4267.689,1686.937v2.484h-9.652v-2.346l6.331-8.97h-6.117v-2.484h9.244v2.306l-6.273,9.029Z" transform="translate(0.002 0.121)"/><path d="M-4256.882,1682.628a7.121,7.121,0,0,1-7.05,7.177,7.091,7.091,0,0,1-7.029-7.177,7.1,7.1,0,0,1,7.029-7.175A7.133,7.133,0,0,1-4256.882,1682.628Zm-11.361,0a4.522,4.522,0,0,0,4.312,4.575,4.513,4.513,0,0,0,4.332-4.575,4.525,4.525,0,0,0-4.332-4.573A4.535,4.535,0,0,0-4268.243,1682.628Z" transform="translate(3.953 0.013)"/><path d="M-4252.138,1686.937v2.484h-9.652v-2.346l6.331-8.97h-6.118v-2.484h9.244v2.306l-6.272,9.029Z" transform="translate(9.63 0.121)"/><path d="M-4241.332,1682.628a7.12,7.12,0,0,1-7.048,7.177,7.092,7.092,0,0,1-7.031-7.177,7.1,7.1,0,0,1,7.031-7.175A7.133,7.133,0,0,1-4241.332,1682.628Zm-11.36,0a4.521,4.521,0,0,0,4.312,4.575,4.51,4.51,0,0,0,4.329-4.575,4.523,4.523,0,0,0-4.329-4.573A4.534,4.534,0,0,0-4252.692,1682.628Z" transform="translate(13.58 0.013)"/><path d="M-4235.771,1686.25c-.525,2.207-2.738,3.43-4.854,3.529a6.5,6.5,0,0,1-5.517-2.76c.624-.552,1.262-1.164,1.9-1.734a4.337,4.337,0,0,0,2.407,1.833,2.989,2.989,0,0,0,2.991-.454,1.474,1.474,0,0,0-.252-2.247,3.05,3.05,0,0,0-1.417-.493c-.544-.059-1.068-.178-1.632-.3a5.344,5.344,0,0,1-2.66-1.418,3.9,3.9,0,0,1-.932-2.74,4.6,4.6,0,0,1,1.359-2.761,4.884,4.884,0,0,1,2.913-1.241,6,6,0,0,1,5.3,2.227c-.581.631-1.261,1.223-1.883,1.794a4.294,4.294,0,0,0-2.757-1.557,2.193,2.193,0,0,0-2.058,1.125,1.139,1.139,0,0,0,.116,1.3,2.5,2.5,0,0,0,1.165.73c.855.257,1.807.375,2.737.612a4.062,4.062,0,0,1,2.253,1.221A3.683,3.683,0,0,1-4235.771,1686.25Z" transform="translate(19.321 -0.001)"/><path d="M-4228.445,1675.621v13.8h-2.719v-5.658h-4.679v5.658h-2.719v-13.8h2.719v5.658h4.679v-5.658Z" transform="translate(24.014 0.121)"/><path d="M-4217.072,1682.628a7.12,7.12,0,0,1-7.048,7.177,7.092,7.092,0,0,1-7.03-7.177,7.1,7.1,0,0,1,7.03-7.175A7.132,7.132,0,0,1-4217.072,1682.628Zm-11.36,0a4.522,4.522,0,0,0,4.312,4.575,4.512,4.512,0,0,0,4.331-4.575,4.525,4.525,0,0,0-4.331-4.573A4.535,4.535,0,0,0-4228.432,1682.628Z" transform="translate(28.602 0.013)"/><path d="M-4218.572,1678.105v3.174h4.563v2.484h-4.563v3.174h4.816v2.484h-7.554v-13.8h7.554v2.484Z" transform="translate(34.694 0.121)"/><path d="M-4205.493,1686.25c-.524,2.207-2.739,3.43-4.854,3.529a6.5,6.5,0,0,1-5.515-2.76c.621-.552,1.261-1.164,1.9-1.734a4.341,4.341,0,0,0,2.408,1.833,2.988,2.988,0,0,0,2.99-.454,1.474,1.474,0,0,0-.251-2.247,3.058,3.058,0,0,0-1.416-.493c-.545-.059-1.069-.178-1.633-.3a5.348,5.348,0,0,1-2.661-1.418,3.9,3.9,0,0,1-.932-2.74,4.614,4.614,0,0,1,1.359-2.761,4.884,4.884,0,0,1,2.913-1.241,6.006,6.006,0,0,1,5.3,2.227c-.582.631-1.261,1.223-1.882,1.794a4.3,4.3,0,0,0-2.758-1.557,2.194,2.194,0,0,0-2.058,1.125,1.142,1.142,0,0,0,.116,1.3,2.5,2.5,0,0,0,1.166.73c.854.257,1.806.375,2.736.612a4.073,4.073,0,0,1,2.255,1.221A3.685,3.685,0,0,1-4205.493,1686.25Z" transform="translate(38.068 -0.001)"/></g></svg>